# xmcd CD database file
#
# Track frame offsets:
#	150
#	20371
#	47474
#	67217
#	87386
#	112095
#	134771
#	151042
#	173250
#	199063
#	212162
#	237274
#	262556
#	278407
#
# Disc length: 4056 seconds
#
# Revision: 0
# Processed by: cddbd v1.4PL0 Copyright (c) Steve Scherf et al.
# Submitted via: NeoAudio 1.5.6
#
DISCID=b70fd60e
DTITLE=Various Artist - Lo Mejor De Fania 1/3
DYEAR=1900
DGENRE=Salsa
TTITLE0=No Me Cambie Camino-Celia Cruz and Ray Barreto
TTITLE1=Ligia Elena-Ruben Blades
TTITLE2=Abuelita-Willie Colon
TTITLE3=Oye Como Va-Tito Puente
TTITLE4=Bamboleo-Celia Cruz
TTITLE5=Yo No Soy Guapo-Eddie Palmieri
TTITLE6=Ese Mar Es Mio-Rolando Laserie and Johnny Pacheco
TTITLE7=Ijobi DJoba-fania All Stars Con Pete El Conde Rodriguez
TTITLE8=Lluvia De Tu Cielo-Ruben Blades and Willie Colon
TTITLE9=Mama Guela-Fania All Stars Con Cheo Feliciano
TTITLE10=Indiferencia-Ray Barretto
TTITLE11=Niña-Fania All Stars Con Cheo Feliciano
TTITLE12=Señora-Richie Ray
TTITLE13=Nadie Se Salva De La Rumba-Celia Cruz Ray Barreto and Adalberto Santiago
EXTD=
EXTT0=
EXTT1=
EXTT2=
EXTT3=
EXTT4=
EXTT5=
EXTT6=
EXTT7=
EXTT8=
EXTT9=
EXTT10=
EXTT11=
EXTT12=
EXTT13=
PLAYORDER=
